<svg width="2860" height="717" viewBox="0 0 2860 717" fill="none" xmlns="http://www.w3.org/2000/svg">
<path d="M766.39 420.391C766.39 409.323 762.486 400.859 754.678 395C746.87 389.01 732.816 382.76 712.516 376.25C692.216 369.609 676.145 363.099 664.303 356.719C632.031 339.271 615.895 315.768 615.895 286.211C615.895 270.846 620.189 257.174 628.777 245.195C637.496 233.086 649.924 223.646 666.06 216.875C682.326 210.104 700.544 206.719 720.714 206.719C741.015 206.719 759.103 210.43 774.979 217.852C790.854 225.143 803.152 235.495 811.87 248.906C820.719 262.318 825.144 277.552 825.144 294.609H766.585C766.585 281.589 762.486 271.497 754.288 264.336C746.09 257.044 734.573 253.398 719.738 253.398C705.424 253.398 694.298 256.458 686.36 262.578C678.422 268.568 674.453 276.51 674.453 286.406C674.453 295.651 679.073 303.398 688.312 309.648C697.681 315.898 711.41 321.758 729.498 327.227C762.811 337.253 787.081 349.688 802.306 364.531C817.531 379.375 825.144 397.865 825.144 420C825.144 444.609 815.839 463.945 797.231 478.008C778.622 491.94 753.572 498.906 722.081 498.906C700.219 498.906 680.309 494.935 662.351 486.992C644.393 478.919 630.664 467.917 621.165 453.984C611.796 440.052 607.111 423.906 607.111 405.547H665.865C665.865 436.927 684.603 452.617 722.081 452.617C736.005 452.617 746.87 449.818 754.678 444.219C762.486 438.49 766.39 430.547 766.39 420.391Z" fill="black"/>
<path d="M916.3 306.719C931.265 288.75 950.068 279.766 972.711 279.766C1018.52 279.766 1041.74 306.393 1042.4 359.648V495H985.984V361.211C985.984 349.102 983.382 340.182 978.176 334.453C972.971 328.594 964.318 325.664 952.216 325.664C935.689 325.664 923.717 332.044 916.3 344.805V495H859.888V195H916.3V306.719Z" fill="black"/>
<path d="M1207.34 495C1204.73 489.922 1202.85 483.607 1201.67 476.055C1188.01 491.289 1170.25 498.906 1148.39 498.906C1127.7 498.906 1110.52 492.917 1096.86 480.938C1083.32 468.958 1076.55 453.854 1076.55 435.625C1076.55 413.229 1084.82 396.042 1101.34 384.062C1118 372.083 1142.01 366.029 1173.37 365.898H1199.33V353.789C1199.33 344.023 1196.79 336.211 1191.72 330.352C1186.77 324.492 1178.9 321.562 1168.1 321.562C1158.6 321.562 1151.12 323.841 1145.65 328.398C1140.32 332.956 1137.65 339.206 1137.65 347.148H1081.24C1081.24 334.909 1085.01 323.581 1092.56 313.164C1100.11 302.747 1110.78 294.609 1124.57 288.75C1138.37 282.76 1153.85 279.766 1171.03 279.766C1197.06 279.766 1217.68 286.341 1232.91 299.492C1248.26 312.513 1255.94 330.872 1255.94 354.57V446.172C1256.07 466.224 1258.87 481.393 1264.33 491.68V495H1207.34ZM1160.68 455.742C1169.01 455.742 1176.69 453.919 1183.72 450.273C1190.74 446.497 1195.95 441.484 1199.33 435.234V398.906H1178.25C1150.01 398.906 1134.98 408.672 1133.16 428.203L1132.97 431.523C1132.97 438.555 1135.44 444.349 1140.38 448.906C1145.33 453.464 1152.1 455.742 1160.68 455.742Z" fill="black"/>
<path d="M1375.98 410.234L1355.68 430.547V495H1299.27V195H1355.68V361.211L1366.61 347.148L1420.68 283.672H1488.42L1412.09 371.758L1495.05 495H1430.25L1375.98 410.234Z" fill="black"/>
<path d="M1606.12 498.906C1575.15 498.906 1549.9 489.401 1530.38 470.391C1510.99 451.38 1501.3 426.055 1501.3 394.414V388.945C1501.3 367.721 1505.4 348.776 1513.6 332.109C1521.79 315.312 1533.38 302.422 1548.34 293.438C1563.44 284.323 1580.61 279.766 1599.87 279.766C1628.76 279.766 1651.47 288.88 1668 307.109C1684.65 325.339 1692.98 351.185 1692.98 384.648V407.695H1558.49C1560.31 421.497 1565.78 432.565 1574.89 440.898C1584.13 449.232 1595.77 453.398 1609.83 453.398C1631.56 453.398 1648.54 445.521 1660.77 429.766L1688.49 460.82C1680.03 472.799 1668.58 482.174 1654.14 488.945C1639.69 495.586 1623.69 498.906 1606.12 498.906ZM1599.68 325.469C1588.49 325.469 1579.38 329.245 1572.35 336.797C1565.45 344.349 1561.03 355.156 1559.08 369.219H1637.55V364.727C1637.28 352.227 1633.9 342.591 1627.39 335.82C1620.89 328.919 1611.65 325.469 1599.68 325.469Z" fill="black"/>
<ellipse cx="358.784" cy="560" rx="134.919" ry="32" fill="black" fill-opacity="0.15"/>
<mask id="path-3-outside-1" maskUnits="userSpaceOnUse" x="255.817" y="428.584" width="202" height="152" fill="black">
<rect fill="white" x="255.817" y="428.584" width="202" height="152"/>
<path fill-rule="evenodd" clip-rule="evenodd" d="M364.757 446.58C364.757 442.164 361.178 438.584 356.762 438.584V438.584C352.346 438.584 348.767 442.164 348.767 446.58V517.064C348.767 526.851 340.935 534.785 331.175 535.507C293.405 538.302 265.817 547.129 265.817 557.584C265.817 558.126 266.17 558.58 266.669 558.79C283.319 565.788 317.411 570.584 356.762 570.584C396.114 570.584 430.206 565.788 446.855 558.79C447.354 558.58 447.707 558.126 447.707 557.584C447.707 547.129 420.12 538.302 382.349 535.507C372.589 534.785 364.757 526.851 364.757 517.064V446.58Z"/>
</mask>
<path fill-rule="evenodd" clip-rule="evenodd" d="M364.757 446.58C364.757 442.164 361.178 438.584 356.762 438.584V438.584C352.346 438.584 348.767 442.164 348.767 446.58V517.064C348.767 526.851 340.935 534.785 331.175 535.507C293.405 538.302 265.817 547.129 265.817 557.584C265.817 558.126 266.17 558.58 266.669 558.79C283.319 565.788 317.411 570.584 356.762 570.584C396.114 570.584 430.206 565.788 446.855 558.79C447.354 558.58 447.707 558.126 447.707 557.584C447.707 547.129 420.12 538.302 382.349 535.507C372.589 534.785 364.757 526.851 364.757 517.064V446.58Z" fill="#00B8F0"/>
<path d="M266.669 558.79L270.544 549.571L270.544 549.571L266.669 558.79ZM446.855 558.79L450.73 568.009L450.73 568.009L446.855 558.79ZM358.767 517.064V446.58H338.767V517.064H358.767ZM275.817 557.584C275.817 559.703 274.447 559.791 276.651 558.166C278.628 556.709 282.146 554.938 287.487 553.162C298.047 549.651 313.498 546.843 331.913 545.48L330.437 525.535C311.081 526.967 293.854 529.969 281.177 534.184C274.9 536.271 269.16 538.842 264.784 542.067C260.635 545.126 255.817 550.238 255.817 557.584H275.817ZM270.544 549.571C273.126 550.657 275.817 553.458 275.817 557.584H255.817C255.817 562.793 259.214 566.504 262.794 568.009L270.544 549.571ZM356.762 560.584C317.695 560.584 285.274 555.763 270.544 549.571L262.794 568.009C281.363 575.814 317.126 580.584 356.762 580.584V560.584ZM442.981 549.571C428.25 555.762 395.829 560.584 356.762 560.584V580.584C396.398 580.584 432.161 575.814 450.73 568.009L442.981 549.571ZM437.707 557.584C437.707 553.458 440.398 550.657 442.981 549.571L450.73 568.009C454.31 566.504 457.707 562.794 457.707 557.584H437.707ZM381.611 545.48C400.026 546.843 415.478 549.651 426.037 553.162C431.378 554.938 434.896 556.709 436.873 558.166C439.077 559.791 437.707 559.703 437.707 557.584H457.707C457.707 550.238 452.889 545.126 448.74 542.067C444.364 538.842 438.624 536.271 432.347 534.184C419.67 529.969 402.443 526.967 383.087 525.535L381.611 545.48ZM354.757 446.58V517.064H374.757V446.58H354.757ZM383.087 525.535C378.21 525.174 374.757 521.281 374.757 517.064H354.757C354.757 532.421 366.968 544.396 381.611 545.48L383.087 525.535ZM338.767 517.064C338.767 521.281 335.315 525.174 330.437 525.535L331.913 545.48C346.556 544.396 358.767 532.421 358.767 517.064H338.767ZM356.762 448.584C355.655 448.584 354.757 447.687 354.757 446.58H374.757C374.757 436.641 366.701 428.584 356.762 428.584V448.584ZM356.762 428.584C346.824 428.584 338.767 436.641 338.767 446.58H358.767C358.767 447.687 357.869 448.584 356.762 448.584V428.584Z" fill="#45413C" mask="url(#path-3-outside-1)"/>
<mask id="path-5-outside-2" maskUnits="userSpaceOnUse" x="250.82" y="178.957" width="212" height="304" fill="black">
<rect fill="white" x="250.82" y="178.957" width="212" height="304"/>
<path fill-rule="evenodd" clip-rule="evenodd" d="M437.491 190.011C438.118 189.797 438.763 190.24 438.813 190.9L452.701 372.543C452.703 372.565 452.685 372.585 452.663 372.585V372.585C452.641 372.585 452.623 372.603 452.624 372.625C452.677 373.938 452.704 375.258 452.704 376.585C452.704 429.604 409.749 472.585 356.762 472.585C303.775 472.585 260.82 429.604 260.82 376.585C260.82 375.258 260.847 373.938 260.9 372.625C260.901 372.603 260.883 372.585 260.861 372.585V372.585C260.839 372.585 260.821 372.565 260.823 372.543L274.711 190.9C274.761 190.24 275.406 189.797 276.034 190.011C282.775 192.306 316.577 203.085 356.762 203.085C396.947 203.085 430.749 192.306 437.491 190.011Z"/>
</mask>
<path fill-rule="evenodd" clip-rule="evenodd" d="M437.491 190.011C438.118 189.797 438.763 190.24 438.813 190.9L452.701 372.543C452.703 372.565 452.685 372.585 452.663 372.585V372.585C452.641 372.585 452.623 372.603 452.624 372.625C452.677 373.938 452.704 375.258 452.704 376.585C452.704 429.604 409.749 472.585 356.762 472.585C303.775 472.585 260.82 429.604 260.82 376.585C260.82 375.258 260.847 373.938 260.9 372.625C260.901 372.603 260.883 372.585 260.861 372.585V372.585C260.839 372.585 260.821 372.565 260.823 372.543L274.711 190.9C274.761 190.24 275.406 189.797 276.034 190.011C282.775 192.306 316.577 203.085 356.762 203.085C396.947 203.085 430.749 192.306 437.491 190.011Z" fill="#00B8F0"/>
<path d="M356.762 203.085L356.762 193.085L356.762 193.085L356.762 203.085ZM274.711 190.9L284.682 191.663L274.711 190.9ZM276.034 190.011L272.811 199.477L276.034 190.011ZM260.823 372.543L250.852 371.781L260.823 372.543ZM452.624 372.625L442.632 373.03L452.624 372.625ZM260.9 372.625L250.908 372.22L250.908 372.22L260.9 372.625ZM438.813 190.9L448.784 190.138L438.813 190.9ZM437.491 190.011L440.713 199.477L437.491 190.011ZM452.701 372.543L442.73 373.305L452.701 372.543ZM462.672 371.781L448.784 190.138L428.842 191.663L442.73 373.305L462.672 371.781ZM462.704 376.585C462.704 375.123 462.675 373.668 462.616 372.22L442.632 373.03C442.68 374.208 442.704 375.393 442.704 376.585H462.704ZM356.762 482.585C415.278 482.585 462.704 435.121 462.704 376.585H442.704C442.704 424.087 404.221 462.585 356.762 462.585V482.585ZM356.762 462.585C309.303 462.585 270.82 424.087 270.82 376.585H250.82C250.82 435.121 298.246 482.585 356.762 482.585V462.585ZM270.82 376.585C270.82 375.393 270.844 374.208 270.892 373.03L250.908 372.22C250.849 373.668 250.82 375.123 250.82 376.585H270.82ZM270.794 373.305L284.682 191.663L264.74 190.138L250.852 371.781L270.794 373.305ZM272.811 199.477C279.996 201.924 314.992 213.085 356.762 213.085L356.762 193.085C318.161 193.085 285.553 182.688 279.256 180.544L272.811 199.477ZM434.268 180.544C427.971 182.688 395.363 193.085 356.762 193.085V213.085C398.532 213.085 433.528 201.924 440.713 199.477L434.268 180.544ZM284.682 191.663C284.254 197.263 278.608 201.451 272.811 199.477L279.256 180.544C272.205 178.144 265.269 183.216 264.74 190.138L284.682 191.663ZM260.861 362.585C266.662 362.585 271.236 367.522 270.794 373.305L250.852 371.781C250.406 377.609 255.016 382.585 260.861 382.585V362.585ZM452.663 362.585C446.958 362.585 442.401 367.332 442.632 373.03L462.616 372.22C462.845 377.873 458.324 382.585 452.663 382.585V362.585ZM270.892 373.03C271.123 367.332 266.567 362.585 260.861 362.585V382.585C255.2 382.585 250.679 377.873 250.908 372.22L270.892 373.03ZM448.784 190.138C448.255 183.216 441.319 178.144 434.268 180.544L440.713 199.477C434.916 201.451 429.271 197.263 428.842 191.663L448.784 190.138ZM442.73 373.305C442.288 367.522 446.862 362.585 452.663 362.585V382.585C458.508 382.585 463.118 377.609 462.672 371.781L442.73 373.305Z" fill="#45413C" mask="url(#path-5-outside-2)"/>
<ellipse cx="356.762" cy="260.584" rx="73.9555" ry="14" fill="#BC5E00"/>
<path fill-rule="evenodd" clip-rule="evenodd" d="M387.882 201.059C397.558 199.833 406.321 198.189 413.74 196.529L410.452 305.105C410.419 306.209 409.497 307.077 408.393 307.043L386.693 306.385C385.589 306.352 384.721 305.43 384.755 304.326L387.882 201.059Z" fill="#9F5AE5"/>
<path d="M387.882 201.059L387.253 196.099L383.014 196.637L382.884 200.908L387.882 201.059ZM413.74 196.529L418.738 196.68L418.933 190.244L412.649 191.649L413.74 196.529ZM410.452 305.105L415.45 305.256L415.45 305.256L410.452 305.105ZM408.393 307.043L408.241 312.041L408.241 312.041L408.393 307.043ZM386.693 306.385L386.542 311.383L386.542 311.383L386.693 306.385ZM384.755 304.326L389.753 304.477L389.753 304.477L384.755 304.326ZM388.511 206.02C398.364 204.771 407.283 203.097 414.832 201.408L412.649 191.649C405.359 193.28 396.752 194.895 387.253 196.099L388.511 206.02ZM415.45 305.256L418.738 196.68L408.743 196.377L405.455 304.954L415.45 305.256ZM408.241 312.041C412.105 312.158 415.333 309.121 415.45 305.256L405.455 304.954C405.505 303.297 406.888 301.996 408.544 302.046L408.241 312.041ZM386.542 311.383L408.241 312.041L408.544 302.046L386.845 301.388L386.542 311.383ZM379.757 304.174C379.64 308.039 382.678 311.266 386.542 311.383L386.845 301.388C388.501 301.438 389.803 302.821 389.753 304.477L379.757 304.174ZM382.884 200.908L379.757 304.174L389.753 304.477L392.88 201.211L382.884 200.908Z" fill="#45413C"/>
<path fill-rule="evenodd" clip-rule="evenodd" d="M285.869 260.584H282.803L275.813 363.013C275.812 363.032 275.827 363.048 275.846 363.048C275.864 363.048 275.879 363.064 275.878 363.082C275.833 364.325 275.811 365.575 275.811 366.83C275.811 416.952 312.054 457.585 356.762 457.585C401.47 457.585 437.713 416.952 437.713 366.83C437.713 365.575 437.69 364.325 437.645 363.082C437.645 363.064 437.659 363.048 437.678 363.048C437.697 363.048 437.712 363.032 437.711 363.013L430.721 260.584H427.655C418.563 266.367 390.264 270.584 356.762 270.584C323.26 270.584 294.961 266.367 285.869 260.584Z" fill="#FF8A14"/>
<path fill-rule="evenodd" clip-rule="evenodd" d="M285.869 260.584H282.803L275.813 363.013C275.812 363.032 275.827 363.048 275.846 363.048C275.864 363.048 275.879 363.064 275.878 363.082C275.833 364.325 275.811 365.575 275.811 366.83C275.811 416.952 312.054 457.585 356.762 457.585C401.47 457.585 437.713 416.952 437.713 366.83C437.713 365.575 437.69 364.325 437.645 363.082C437.645 363.064 437.659 363.048 437.678 363.048C437.697 363.048 437.712 363.032 437.711 363.013L430.721 260.584H427.655C418.563 266.367 390.264 270.584 356.762 270.584C323.26 270.584 294.961 266.367 285.869 260.584Z" fill="#FF8A14"/>
<path fill-rule="evenodd" clip-rule="evenodd" d="M276.321 377.073C280.859 422.373 315.143 457.585 356.762 457.585C398.519 457.585 432.892 422.139 437.248 376.622C411.024 382.489 383.755 385.584 355.763 385.584C328.497 385.584 301.917 382.648 276.321 377.073Z" fill="#FF6242"/>
<path fill-rule="evenodd" clip-rule="evenodd" d="M270.862 419.39C264.435 406.503 260.82 391.966 260.82 376.585C260.82 375.258 260.847 373.938 260.9 372.625C260.901 372.603 260.883 372.585 260.861 372.585C260.839 372.585 260.821 372.565 260.823 372.543L274.711 190.9C274.761 190.24 275.406 189.797 276.034 190.011C282.775 192.306 316.577 203.085 356.762 203.085C396.947 203.085 430.749 192.306 437.491 190.011C438.118 189.797 438.763 190.24 438.813 190.9L444.782 268.967C417.974 345.555 351.983 403.718 270.862 419.39Z" fill="white" fill-opacity="0.29"/>
<mask id="path-14-outside-3" maskUnits="userSpaceOnUse" x="269.365" y="166.087" width="178" height="47" fill="black">
<rect fill="white" x="269.365" y="166.087" width="178" height="47"/>
<path fill-rule="evenodd" clip-rule="evenodd" d="M280.166 191.349C279.098 191.018 279.098 188.152 280.166 187.821C291.859 184.197 321.399 176.24 355.758 176.087C356.31 176.084 356.762 176.532 356.762 177.085V189.585L356.762 177.085C356.762 176.532 357.214 176.084 357.766 176.087C395.284 176.254 427.057 185.726 436.121 188.701C437.007 188.992 437.007 190.178 436.121 190.469C426.976 193.47 394.716 203.085 356.762 203.085C321.976 203.085 291.973 195.008 280.166 191.349Z"/>
</mask>
<path fill-rule="evenodd" clip-rule="evenodd" d="M280.166 191.349C279.098 191.018 279.098 188.152 280.166 187.821C291.859 184.197 321.399 176.24 355.758 176.087C356.31 176.084 356.762 176.532 356.762 177.085V189.585L356.762 177.085C356.762 176.532 357.214 176.084 357.766 176.087C395.284 176.254 427.057 185.726 436.121 188.701C437.007 188.992 437.007 190.178 436.121 190.469C426.976 193.47 394.716 203.085 356.762 203.085C321.976 203.085 291.973 195.008 280.166 191.349Z" fill="#00B8F0"/>
<path d="M436.121 188.701L439.239 179.199L436.121 188.701ZM436.121 190.469L439.239 199.97L439.239 199.97L436.121 190.469ZM356.762 177.085L346.762 177.085L356.762 177.085ZM355.713 166.087C319.974 166.246 289.377 174.497 277.206 178.269L283.126 197.372C294.341 193.897 322.824 186.234 355.802 186.087L355.713 166.087ZM366.762 189.585V177.085H346.762V189.585H366.762ZM346.762 177.085L346.762 189.585L366.762 189.585L366.762 177.085L346.762 177.085ZM439.239 179.199C429.715 176.074 396.815 166.261 357.811 166.087L357.722 186.087C393.753 186.247 424.398 195.378 433.003 198.202L439.239 179.199ZM356.762 213.085C396.228 213.085 429.634 203.122 439.239 199.97L433.003 180.967C424.318 183.817 393.204 193.085 356.762 193.085V213.085ZM277.206 200.901C289.492 204.708 320.57 213.085 356.762 213.085V193.085C323.381 193.085 294.454 185.307 283.126 181.797L277.206 200.901ZM433.003 198.202C424.713 195.482 424.713 183.688 433.003 180.967L439.239 199.97C449.301 196.668 449.301 182.502 439.239 179.199L433.003 198.202ZM366.762 177.085C366.762 182.101 362.681 186.109 357.722 186.087L357.811 166.087C351.747 166.06 346.762 170.964 346.762 177.085L366.762 177.085ZM277.206 178.269C272.883 179.608 271.002 183.016 270.334 184.619C269.578 186.435 269.365 188.202 269.365 189.585C269.365 190.967 269.578 192.735 270.334 194.551C271.002 196.153 272.883 199.561 277.206 200.901L283.126 181.797C286.914 182.971 288.395 185.897 288.796 186.858C289.285 188.033 289.365 189.001 289.365 189.585C289.365 190.168 289.285 191.136 288.796 192.311C288.395 193.273 286.914 196.198 283.126 197.372L277.206 178.269ZM355.802 186.087C350.843 186.109 346.762 182.101 346.762 177.085H366.762C366.762 170.964 361.777 166.06 355.713 166.087L355.802 186.087Z" fill="#45413C" mask="url(#path-14-outside-3)"/>
<mask id="path-16-outside-4" maskUnits="userSpaceOnUse" x="193.987" y="116.341" width="133.252" height="118.131" fill="black">
<rect fill="white" x="193.987" y="116.341" width="133.252" height="118.131"/>
<path fill-rule="evenodd" clip-rule="evenodd" d="M247.516 154.107C226.549 167.521 218.963 193.982 228.577 216.111C230.337 220.164 235.353 221.236 239.074 218.855L309.796 173.608C313.517 171.227 314.649 166.222 311.712 162.922C295.671 144.905 268.483 140.692 247.516 154.107Z"/>
</mask>
<path fill-rule="evenodd" clip-rule="evenodd" d="M247.516 154.107C226.549 167.521 218.963 193.982 228.577 216.111C230.337 220.164 235.353 221.236 239.074 218.855L309.796 173.608C313.517 171.227 314.649 166.222 311.712 162.922C295.671 144.905 268.483 140.692 247.516 154.107Z" fill="#D6B027"/>
<path d="M311.712 162.922L305.739 168.245L311.712 162.922ZM235.912 212.92C227.838 194.337 234.221 172.11 251.824 160.848L243.208 147.365C218.877 162.932 210.087 193.627 221.241 219.303L235.912 212.92ZM305.488 166.867L234.767 212.114L243.382 225.596L314.103 180.349L305.488 166.867ZM251.824 160.848C269.427 149.585 292.268 153.115 305.739 168.245L317.684 157.599C299.073 136.694 267.539 131.799 243.208 147.365L251.824 160.848ZM314.103 180.349C321.197 175.811 324.479 165.231 317.684 157.599L305.739 168.245C305.618 168.109 305.494 167.896 305.428 167.639C305.366 167.397 305.377 167.203 305.4 167.084C305.441 166.874 305.522 166.845 305.488 166.867L314.103 180.349ZM221.241 219.303C225.314 228.677 236.289 230.134 243.382 225.596L234.767 212.114C234.732 212.136 234.793 212.074 235.001 212.125C235.119 212.154 235.299 212.226 235.492 212.383C235.698 212.551 235.839 212.754 235.912 212.92L221.241 219.303Z" fill="#45413C" mask="url(#path-16-outside-4)"/>
<path fill-rule="evenodd" clip-rule="evenodd" d="M308.957 174.144C296.766 155.067 271.428 149.491 252.362 161.689C233.296 173.887 227.723 199.241 239.914 218.318L308.957 174.144Z" fill="#FFEDAF"/>
<path fill-rule="evenodd" clip-rule="evenodd" d="M413.619 200.556L414.811 161.184C414.823 160.781 414.957 160.391 415.195 160.066L468.522 86.9956C469.173 86.1038 468.978 84.8531 468.086 84.2017L450.547 71.386C449.658 70.7359 448.41 70.9279 447.756 71.8155L389.764 150.627C389.523 150.954 389.388 151.346 389.376 151.752L387.761 205.075C397.432 203.853 406.194 202.214 413.619 200.556Z" fill="#9F5AE5"/>
<path d="M413.619 200.556L414.708 205.436L418.499 204.59L418.616 200.707L413.619 200.556ZM414.811 161.184L419.809 161.335L419.809 161.335L414.811 161.184ZM415.195 160.066L411.156 157.118L411.156 157.118L415.195 160.066ZM468.522 86.9956L472.561 89.9432L472.561 89.9432L468.522 86.9956ZM468.086 84.2017L471.036 80.1646L471.036 80.1646L468.086 84.2017ZM450.547 71.386L453.497 67.3489L453.497 67.3489L450.547 71.386ZM447.756 71.8155L451.784 74.7789L451.784 74.7789L447.756 71.8155ZM389.764 150.627L385.737 147.664L385.737 147.664L389.764 150.627ZM389.376 151.752L394.373 151.903L394.373 151.903L389.376 151.752ZM387.761 205.075L382.763 204.923L382.586 210.768L388.387 210.035L387.761 205.075ZM418.616 200.707L419.809 161.335L409.813 161.033L408.621 200.405L418.616 200.707ZM419.809 161.335C419.79 161.94 419.59 162.525 419.233 163.013L411.156 157.118C410.324 158.258 409.856 159.622 409.813 161.033L419.809 161.335ZM419.233 163.013L472.561 89.9432L464.483 84.048L411.156 157.118L419.233 163.013ZM472.561 89.9432C474.839 86.8215 474.156 82.4445 471.036 80.1646L465.137 88.2388C463.799 87.2618 463.507 85.386 464.483 84.0481L472.561 89.9432ZM471.036 80.1646L453.497 67.3489L447.597 75.4231L465.137 88.2388L471.036 80.1646ZM453.497 67.3489C450.383 65.0736 446.015 65.7455 443.729 68.8521L451.784 74.7789C450.804 76.1103 448.932 76.3982 447.597 75.4231L453.497 67.3489ZM443.729 68.8521L385.737 147.664L393.791 153.591L451.784 74.7789L443.729 68.8521ZM385.737 147.664C384.895 148.808 384.421 150.181 384.378 151.601L394.373 151.903C394.355 152.512 394.152 153.1 393.791 153.591L385.737 147.664ZM384.378 151.601L382.763 204.923L392.758 205.226L394.373 151.903L384.378 151.601ZM388.387 210.035C398.235 208.791 407.154 207.122 414.708 205.436L412.529 195.676C405.235 197.305 396.628 198.915 387.134 200.114L388.387 210.035Z" fill="#45413C"/>
<path d="M1719.04 495.098V211H1806.44C1831.41 211 1853.71 216.659 1873.35 227.976C1893.12 239.163 1908.53 255.163 1919.58 275.976C1930.64 296.659 1936.17 320.203 1936.17 346.61V359.683C1936.17 386.089 1930.7 409.569 1919.78 430.122C1908.99 450.675 1893.7 466.61 1873.94 477.927C1854.17 489.244 1831.86 494.967 1807.02 495.098H1719.04ZM1777.57 258.415V448.073H1805.85C1828.74 448.073 1846.23 440.593 1858.33 425.634C1870.42 410.675 1876.6 389.276 1876.86 361.439V346.415C1876.86 317.537 1870.88 295.683 1858.91 280.854C1846.95 265.894 1829.46 258.415 1806.44 258.415H1777.57Z" fill="#5D5FEF"/>
<path d="M1966.4 387.585C1966.4 366.642 1970.44 347.976 1978.5 331.585C1986.56 315.195 1998.14 302.512 2013.22 293.537C2028.44 284.561 2046.06 280.073 2066.09 280.073C2094.57 280.073 2117.79 288.789 2135.73 306.22C2153.81 323.65 2163.89 347.325 2165.97 377.244L2166.36 391.683C2166.36 424.073 2157.32 450.089 2139.24 469.732C2121.17 489.244 2096.91 499 2066.48 499C2036.05 499 2011.73 489.244 1993.52 469.732C1975.44 450.22 1966.4 423.683 1966.4 390.122V387.585ZM2022.78 391.683C2022.78 411.715 2026.55 427.065 2034.1 437.732C2041.64 448.268 2052.43 453.537 2066.48 453.537C2080.14 453.537 2090.8 448.333 2098.47 437.927C2106.15 427.39 2109.98 410.61 2109.98 387.585C2109.98 367.943 2106.15 352.724 2098.47 341.927C2090.8 331.13 2080.01 325.732 2066.09 325.732C2052.3 325.732 2041.64 331.13 2034.1 341.927C2026.55 352.593 2022.78 369.179 2022.78 391.683Z" fill="#5D5FEF"/>
<path d="M2288.87 453.537C2299.27 453.537 2307.73 450.675 2314.23 444.951C2320.73 439.228 2324.11 431.618 2324.37 422.122H2377.24C2377.11 436.431 2373.21 449.569 2365.54 461.537C2357.86 473.374 2347.33 482.61 2333.93 489.244C2320.67 495.748 2305.97 499 2289.85 499C2259.67 499 2235.87 489.439 2218.45 470.317C2201.02 451.065 2192.31 424.528 2192.31 390.707V387C2192.31 354.48 2200.95 328.528 2218.25 309.146C2235.55 289.764 2259.28 280.073 2289.46 280.073C2315.86 280.073 2336.99 287.618 2352.86 302.707C2368.85 317.667 2376.98 337.634 2377.24 362.61H2324.37C2324.11 351.683 2320.73 342.837 2314.23 336.073C2307.73 329.179 2299.14 325.732 2288.48 325.732C2275.34 325.732 2265.4 330.545 2258.63 340.171C2252 349.667 2248.68 365.146 2248.68 386.61V392.463C2248.68 414.187 2252 429.797 2258.63 439.293C2265.27 448.789 2275.34 453.537 2288.87 453.537Z" fill="#5D5FEF"/>
<path d="M2523.75 436.756C2523.75 429.862 2520.3 424.463 2513.41 420.561C2506.64 416.528 2495.72 412.951 2480.63 409.829C2430.43 399.293 2405.33 377.959 2405.33 345.829C2405.33 327.098 2413.07 311.488 2428.55 299C2444.15 286.382 2464.51 280.073 2489.61 280.073C2516.4 280.073 2537.79 286.382 2553.79 299C2569.92 311.618 2577.98 328.008 2577.98 348.171H2521.6C2521.6 340.106 2519 333.472 2513.8 328.268C2508.6 322.935 2500.47 320.268 2489.41 320.268C2479.92 320.268 2472.57 322.415 2467.37 326.707C2462.17 331 2459.57 336.463 2459.57 343.098C2459.57 349.341 2462.49 354.415 2468.34 358.317C2474.33 362.089 2484.34 365.407 2498.39 368.268C2512.43 371 2524.27 374.122 2533.89 377.634C2563.67 388.561 2578.56 407.488 2578.56 434.415C2578.56 453.667 2570.31 469.276 2553.79 481.244C2537.27 493.081 2515.94 499 2489.8 499C2472.12 499 2456.38 495.878 2442.59 489.634C2428.94 483.26 2418.21 474.61 2410.41 463.683C2402.6 452.626 2398.7 440.724 2398.7 427.976H2452.15C2452.67 437.992 2456.38 445.667 2463.27 451C2470.16 456.333 2479.4 459 2490.97 459C2501.77 459 2509.9 456.984 2515.36 452.951C2520.95 448.789 2523.75 443.39 2523.75 436.756Z" fill="#5D5FEF"/>
</svg>
