<svg width="6782" height="717" viewBox="0 0 6782 717" fill="none" xmlns="http://www.w3.org/2000/svg">
<path d="M2727.39 420.391C2727.39 409.323 2723.49 400.859 2715.68 395C2707.87 389.01 2693.82 382.76 2673.52 376.25C2653.22 369.609 2637.14 363.099 2625.3 356.719C2593.03 339.271 2576.89 315.768 2576.89 286.211C2576.89 270.846 2581.19 257.174 2589.78 245.195C2598.5 233.086 2610.92 223.646 2627.06 216.875C2643.33 210.104 2661.54 206.719 2681.71 206.719C2702.01 206.719 2720.1 210.43 2735.98 217.852C2751.85 225.143 2764.15 235.495 2772.87 248.906C2781.72 262.318 2786.14 277.552 2786.14 294.609H2727.59C2727.59 281.589 2723.49 271.497 2715.29 264.336C2707.09 257.044 2695.57 253.398 2680.74 253.398C2666.42 253.398 2655.3 256.458 2647.36 262.578C2639.42 268.568 2635.45 276.51 2635.45 286.406C2635.45 295.651 2640.07 303.398 2649.31 309.648C2658.68 315.898 2672.41 321.758 2690.5 327.227C2723.81 337.253 2748.08 349.688 2763.31 364.531C2778.53 379.375 2786.14 397.865 2786.14 420C2786.14 444.609 2776.84 463.945 2758.23 478.008C2739.62 491.94 2714.57 498.906 2683.08 498.906C2661.22 498.906 2641.31 494.935 2623.35 486.992C2605.39 478.919 2591.66 467.917 2582.16 453.984C2572.8 440.052 2568.11 423.906 2568.11 405.547H2626.86C2626.86 436.927 2645.6 452.617 2683.08 452.617C2697 452.617 2707.87 449.818 2715.68 444.219C2723.49 438.49 2727.39 430.547 2727.39 420.391Z" fill="black"/>
<path d="M2877.3 306.719C2892.26 288.75 2911.07 279.766 2933.71 279.766C2979.52 279.766 3002.74 306.393 3003.4 359.648V495H2946.98V361.211C2946.98 349.102 2944.38 340.182 2939.18 334.453C2933.97 328.594 2925.32 325.664 2913.22 325.664C2896.69 325.664 2884.72 332.044 2877.3 344.805V495H2820.89V195H2877.3V306.719Z" fill="black"/>
<path d="M3168.34 495C3165.73 489.922 3163.85 483.607 3162.67 476.055C3149.01 491.289 3131.25 498.906 3109.39 498.906C3088.7 498.906 3071.52 492.917 3057.86 480.938C3044.32 468.958 3037.55 453.854 3037.55 435.625C3037.55 413.229 3045.82 396.042 3062.34 384.062C3079 372.083 3103.01 366.029 3134.37 365.898H3160.33V353.789C3160.33 344.023 3157.79 336.211 3152.72 330.352C3147.77 324.492 3139.9 321.562 3129.1 321.562C3119.6 321.562 3112.12 323.841 3106.65 328.398C3101.32 332.956 3098.65 339.206 3098.65 347.148H3042.24C3042.24 334.909 3046.01 323.581 3053.56 313.164C3061.11 302.747 3071.78 294.609 3085.57 288.75C3099.37 282.76 3114.85 279.766 3132.03 279.766C3158.06 279.766 3178.68 286.341 3193.91 299.492C3209.26 312.513 3216.94 330.872 3216.94 354.57V446.172C3217.07 466.224 3219.87 481.393 3225.33 491.68V495H3168.34ZM3121.68 455.742C3130.01 455.742 3137.69 453.919 3144.72 450.273C3151.74 446.497 3156.95 441.484 3160.33 435.234V398.906H3139.25C3111.01 398.906 3095.98 408.672 3094.16 428.203L3093.97 431.523C3093.97 438.555 3096.44 444.349 3101.38 448.906C3106.33 453.464 3113.1 455.742 3121.68 455.742Z" fill="black"/>
<path d="M3336.98 410.234L3316.68 430.547V495H3260.27V195H3316.68V361.211L3327.61 347.148L3381.68 283.672H3449.42L3373.09 371.758L3456.05 495H3391.25L3336.98 410.234Z" fill="black"/>
<path d="M3567.12 498.906C3536.15 498.906 3510.9 489.401 3491.38 470.391C3471.99 451.38 3462.3 426.055 3462.3 394.414V388.945C3462.3 367.721 3466.4 348.776 3474.6 332.109C3482.79 315.312 3494.38 302.422 3509.34 293.438C3524.44 284.323 3541.61 279.766 3560.87 279.766C3589.76 279.766 3612.47 288.88 3629 307.109C3645.65 325.339 3653.98 351.185 3653.98 384.648V407.695H3519.49C3521.31 421.497 3526.78 432.565 3535.89 440.898C3545.13 449.232 3556.77 453.398 3570.83 453.398C3592.56 453.398 3609.54 445.521 3621.77 429.766L3649.49 460.82C3641.03 472.799 3629.58 482.174 3615.14 488.945C3600.69 495.586 3584.69 498.906 3567.12 498.906ZM3560.68 325.469C3549.49 325.469 3540.38 329.245 3533.35 336.797C3526.45 344.349 3522.03 355.156 3520.08 369.219H3598.55V364.727C3598.28 352.227 3594.9 342.591 3588.39 335.82C3581.89 328.919 3572.65 325.469 3560.68 325.469Z" fill="black"/>
<ellipse cx="2319.78" cy="560" rx="134.919" ry="32" fill="black" fill-opacity="0.15"/>
<mask id="path-3-outside-1" maskUnits="userSpaceOnUse" x="2216.82" y="428.585" width="202" height="152" fill="black">
<rect fill="white" x="2216.82" y="428.585" width="202" height="152"/>
<path fill-rule="evenodd" clip-rule="evenodd" d="M2325.76 446.58C2325.76 442.164 2322.18 438.585 2317.76 438.585V438.585C2313.35 438.585 2309.77 442.164 2309.77 446.58V517.064C2309.77 526.851 2301.94 534.785 2292.18 535.507C2254.4 538.303 2226.82 547.129 2226.82 557.585C2226.82 558.126 2227.17 558.581 2227.67 558.79C2244.32 565.788 2278.41 570.585 2317.76 570.585C2357.11 570.585 2391.21 565.788 2407.86 558.79C2408.35 558.581 2408.71 558.126 2408.71 557.585C2408.71 547.129 2381.12 538.303 2343.35 535.507C2333.59 534.785 2325.76 526.851 2325.76 517.064V446.58Z"/>
</mask>
<path fill-rule="evenodd" clip-rule="evenodd" d="M2325.76 446.58C2325.76 442.164 2322.18 438.585 2317.76 438.585V438.585C2313.35 438.585 2309.77 442.164 2309.77 446.58V517.064C2309.77 526.851 2301.94 534.785 2292.18 535.507C2254.4 538.303 2226.82 547.129 2226.82 557.585C2226.82 558.126 2227.17 558.581 2227.67 558.79C2244.32 565.788 2278.41 570.585 2317.76 570.585C2357.11 570.585 2391.21 565.788 2407.86 558.79C2408.35 558.581 2408.71 558.126 2408.71 557.585C2408.71 547.129 2381.12 538.303 2343.35 535.507C2333.59 534.785 2325.76 526.851 2325.76 517.064V446.58Z" fill="#00B8F0"/>
<path d="M2227.67 558.79L2231.54 549.571L2231.54 549.571L2227.67 558.79ZM2407.86 558.79L2411.73 568.009L2411.73 568.009L2407.86 558.79ZM2319.77 517.064V446.58H2299.77V517.064H2319.77ZM2236.82 557.585C2236.82 559.703 2235.45 559.791 2237.65 558.167C2239.63 556.709 2243.15 554.938 2248.49 553.162C2259.05 549.652 2274.5 546.843 2292.91 545.48L2291.44 525.535C2272.08 526.967 2254.85 529.969 2242.18 534.184C2235.9 536.271 2230.16 538.842 2225.78 542.068C2221.64 545.126 2216.82 550.238 2216.82 557.585H2236.82ZM2231.54 549.571C2234.13 550.657 2236.82 553.458 2236.82 557.585H2216.82C2216.82 562.794 2220.21 566.504 2223.79 568.009L2231.54 549.571ZM2317.76 560.585C2278.69 560.585 2246.27 555.763 2231.54 549.571L2223.79 568.009C2242.36 575.814 2278.13 580.585 2317.76 580.585V560.585ZM2403.98 549.571C2389.25 555.763 2356.83 560.585 2317.76 560.585V580.585C2357.4 580.585 2393.16 575.814 2411.73 568.009L2403.98 549.571ZM2398.71 557.585C2398.71 553.458 2401.4 550.657 2403.98 549.571L2411.73 568.009C2415.31 566.504 2418.71 562.794 2418.71 557.585H2398.71ZM2342.61 545.48C2361.03 546.843 2376.48 549.652 2387.04 553.162C2392.38 554.938 2395.9 556.709 2397.87 558.167C2400.08 559.791 2398.71 559.703 2398.71 557.585H2418.71C2418.71 550.238 2413.89 545.126 2409.74 542.068C2405.36 538.842 2399.62 536.271 2393.35 534.184C2380.67 529.969 2363.44 526.967 2344.09 525.535L2342.61 545.48ZM2315.76 446.58V517.064H2335.76V446.58H2315.76ZM2344.09 525.535C2339.21 525.174 2335.76 521.281 2335.76 517.064H2315.76C2315.76 532.421 2327.97 544.396 2342.61 545.48L2344.09 525.535ZM2299.77 517.064C2299.77 521.281 2296.31 525.174 2291.44 525.535L2292.91 545.48C2307.56 544.396 2319.77 532.421 2319.77 517.064H2299.77ZM2317.76 448.585C2316.65 448.585 2315.76 447.687 2315.76 446.58H2335.76C2335.76 436.641 2327.7 428.585 2317.76 428.585V448.585ZM2317.76 428.585C2307.82 428.585 2299.77 436.641 2299.77 446.58H2319.77C2319.77 447.687 2318.87 448.585 2317.76 448.585V428.585Z" fill="#45413C" mask="url(#path-3-outside-1)"/>
<mask id="path-5-outside-2" maskUnits="userSpaceOnUse" x="2211.82" y="178.957" width="212" height="304" fill="black">
<rect fill="white" x="2211.82" y="178.957" width="212" height="304"/>
<path fill-rule="evenodd" clip-rule="evenodd" d="M2398.49 190.011C2399.12 189.797 2399.76 190.24 2399.81 190.9L2413.7 372.543C2413.7 372.565 2413.69 372.585 2413.66 372.585V372.585C2413.64 372.585 2413.62 372.603 2413.62 372.625C2413.68 373.938 2413.7 375.258 2413.7 376.585C2413.7 429.604 2370.75 472.585 2317.76 472.585C2264.77 472.585 2221.82 429.604 2221.82 376.585C2221.82 375.258 2221.85 373.938 2221.9 372.625C2221.9 372.603 2221.88 372.585 2221.86 372.585V372.585C2221.84 372.585 2221.82 372.566 2221.82 372.543L2235.71 190.9C2235.76 190.24 2236.41 189.797 2237.03 190.011C2243.77 192.306 2277.58 203.085 2317.76 203.085C2357.95 203.085 2391.75 192.306 2398.49 190.011Z"/>
</mask>
<path fill-rule="evenodd" clip-rule="evenodd" d="M2398.49 190.011C2399.12 189.797 2399.76 190.24 2399.81 190.9L2413.7 372.543C2413.7 372.565 2413.69 372.585 2413.66 372.585V372.585C2413.64 372.585 2413.62 372.603 2413.62 372.625C2413.68 373.938 2413.7 375.258 2413.7 376.585C2413.7 429.604 2370.75 472.585 2317.76 472.585C2264.77 472.585 2221.82 429.604 2221.82 376.585C2221.82 375.258 2221.85 373.938 2221.9 372.625C2221.9 372.603 2221.88 372.585 2221.86 372.585V372.585C2221.84 372.585 2221.82 372.566 2221.82 372.543L2235.71 190.9C2235.76 190.24 2236.41 189.797 2237.03 190.011C2243.77 192.306 2277.58 203.085 2317.76 203.085C2357.95 203.085 2391.75 192.306 2398.49 190.011Z" fill="#00B8F0"/>
<path d="M2317.76 203.085L2317.76 193.085L2317.76 193.085L2317.76 203.085ZM2235.71 190.9L2225.74 190.138L2235.71 190.9ZM2237.03 190.011L2233.81 199.477L2237.03 190.011ZM2221.82 372.543L2231.79 373.305L2221.82 372.543ZM2413.62 372.625L2403.63 373.03L2413.62 372.625ZM2221.9 372.625L2211.91 372.22L2211.91 372.22L2221.9 372.625ZM2399.81 190.9L2409.78 190.138L2399.81 190.9ZM2398.49 190.011L2401.71 199.477L2398.49 190.011ZM2413.7 372.543L2403.73 373.305L2413.7 372.543ZM2423.67 371.781L2409.78 190.138L2389.84 191.663L2403.73 373.305L2423.67 371.781ZM2423.7 376.585C2423.7 375.123 2423.67 373.668 2423.62 372.22L2403.63 373.03C2403.68 374.208 2403.7 375.393 2403.7 376.585H2423.7ZM2317.76 482.585C2376.28 482.585 2423.7 435.121 2423.7 376.585H2403.7C2403.7 424.087 2365.22 462.585 2317.76 462.585V482.585ZM2317.76 462.585C2270.3 462.585 2231.82 424.087 2231.82 376.585H2211.82C2211.82 435.121 2259.25 482.585 2317.76 482.585V462.585ZM2231.82 376.585C2231.82 375.393 2231.84 374.208 2231.89 373.03L2211.91 372.22C2211.85 373.668 2211.82 375.123 2211.82 376.585H2231.82ZM2231.79 373.305L2245.68 191.663L2225.74 190.138L2211.85 371.781L2231.79 373.305ZM2233.81 199.477C2241 201.924 2275.99 213.085 2317.76 213.085L2317.76 193.085C2279.16 193.085 2246.55 182.688 2240.26 180.544L2233.81 199.477ZM2395.27 180.544C2388.97 182.688 2356.36 193.085 2317.76 193.085V213.085C2359.53 213.085 2394.53 201.924 2401.71 199.477L2395.27 180.544ZM2245.68 191.663C2245.25 197.263 2239.61 201.451 2233.81 199.477L2240.26 180.544C2233.2 178.144 2226.27 183.216 2225.74 190.138L2245.68 191.663ZM2221.86 362.585C2227.66 362.585 2232.24 367.522 2231.79 373.305L2211.85 371.781C2211.41 377.609 2216.02 382.585 2221.86 382.585V362.585ZM2413.66 362.585C2407.96 362.585 2403.4 367.332 2403.63 373.03L2423.62 372.22C2423.85 377.873 2419.32 382.585 2413.66 382.585V362.585ZM2231.89 373.03C2232.12 367.332 2227.57 362.585 2221.86 362.585V382.585C2216.2 382.585 2211.68 377.873 2211.91 372.22L2231.89 373.03ZM2409.78 190.138C2409.25 183.216 2402.32 178.144 2395.27 180.544L2401.71 199.477C2395.92 201.451 2390.27 197.263 2389.84 191.663L2409.78 190.138ZM2403.73 373.305C2403.29 367.522 2407.86 362.585 2413.66 362.585V382.585C2419.51 382.585 2424.12 377.609 2423.67 371.781L2403.73 373.305Z" fill="#45413C" mask="url(#path-5-outside-2)"/>
<ellipse cx="2317.76" cy="260.585" rx="73.9555" ry="14" fill="#BC5E00"/>
<path fill-rule="evenodd" clip-rule="evenodd" d="M2348.88 201.059C2358.56 199.833 2367.32 198.189 2374.74 196.529L2371.45 305.105C2371.42 306.209 2370.5 307.077 2369.39 307.043L2347.69 306.385C2346.59 306.352 2345.72 305.43 2345.75 304.326L2348.88 201.059Z" fill="#9F5AE5"/>
<path d="M2348.88 201.059L2348.25 196.099L2344.01 196.637L2343.88 200.908L2348.88 201.059ZM2374.74 196.529L2379.74 196.68L2379.93 190.244L2373.65 191.649L2374.74 196.529ZM2371.45 305.105L2376.45 305.256L2376.45 305.256L2371.45 305.105ZM2369.39 307.043L2369.24 312.041L2369.24 312.041L2369.39 307.043ZM2347.69 306.385L2347.54 311.383L2347.54 311.383L2347.69 306.385ZM2345.75 304.326L2350.75 304.477L2350.75 304.477L2345.75 304.326ZM2349.51 206.02C2359.36 204.771 2368.28 203.097 2375.83 201.408L2373.65 191.649C2366.36 193.28 2357.75 194.895 2348.25 196.099L2349.51 206.02ZM2376.45 305.256L2379.74 196.68L2369.74 196.377L2366.45 304.954L2376.45 305.256ZM2369.24 312.041C2373.11 312.158 2376.33 309.121 2376.45 305.256L2366.45 304.954C2366.5 303.297 2367.89 301.996 2369.54 302.046L2369.24 312.041ZM2347.54 311.383L2369.24 312.041L2369.54 302.046L2347.84 301.388L2347.54 311.383ZM2340.76 304.174C2340.64 308.039 2343.68 311.266 2347.54 311.383L2347.84 301.388C2349.5 301.438 2350.8 302.821 2350.75 304.477L2340.76 304.174ZM2343.88 200.908L2340.76 304.174L2350.75 304.477L2353.88 201.211L2343.88 200.908Z" fill="#45413C"/>
<path fill-rule="evenodd" clip-rule="evenodd" d="M2246.87 260.585H2243.8L2236.81 363.014C2236.81 363.032 2236.83 363.048 2236.85 363.048C2236.86 363.048 2236.88 363.064 2236.88 363.082C2236.83 364.325 2236.81 365.575 2236.81 366.83C2236.81 416.952 2273.05 457.585 2317.76 457.585C2362.47 457.585 2398.71 416.952 2398.71 366.83C2398.71 365.575 2398.69 364.325 2398.65 363.082C2398.64 363.064 2398.66 363.048 2398.68 363.048C2398.7 363.048 2398.71 363.032 2398.71 363.014L2391.72 260.585H2388.65C2379.56 266.368 2351.26 270.585 2317.76 270.585C2284.26 270.585 2255.96 266.368 2246.87 260.585Z" fill="#FF8A14"/>
<path fill-rule="evenodd" clip-rule="evenodd" d="M2246.87 260.585H2243.8L2236.81 363.014C2236.81 363.032 2236.83 363.048 2236.85 363.048C2236.86 363.048 2236.88 363.064 2236.88 363.082C2236.83 364.325 2236.81 365.575 2236.81 366.83C2236.81 416.952 2273.05 457.585 2317.76 457.585C2362.47 457.585 2398.71 416.952 2398.71 366.83C2398.71 365.575 2398.69 364.325 2398.65 363.082C2398.64 363.064 2398.66 363.048 2398.68 363.048C2398.7 363.048 2398.71 363.032 2398.71 363.014L2391.72 260.585H2388.65C2379.56 266.368 2351.26 270.585 2317.76 270.585C2284.26 270.585 2255.96 266.368 2246.87 260.585Z" fill="#FF8A14"/>
<path fill-rule="evenodd" clip-rule="evenodd" d="M2237.32 377.073C2241.86 422.373 2276.14 457.585 2317.76 457.585C2359.52 457.585 2393.89 422.139 2398.25 376.622C2372.02 382.489 2344.75 385.585 2316.76 385.585C2289.5 385.585 2262.92 382.648 2237.32 377.073Z" fill="#FF6242"/>
<path fill-rule="evenodd" clip-rule="evenodd" d="M2231.86 419.39C2225.44 406.503 2221.82 391.966 2221.82 376.585C2221.82 375.258 2221.85 373.938 2221.9 372.625C2221.9 372.603 2221.88 372.585 2221.86 372.585C2221.84 372.585 2221.82 372.566 2221.82 372.543L2235.71 190.9C2235.76 190.24 2236.41 189.797 2237.03 190.011C2243.77 192.306 2277.58 203.085 2317.76 203.085C2357.95 203.085 2391.75 192.306 2398.49 190.011C2399.12 189.797 2399.76 190.24 2399.81 190.9L2405.78 268.967C2378.97 345.555 2312.98 403.718 2231.86 419.39Z" fill="white" fill-opacity="0.29"/>
<mask id="path-14-outside-3" maskUnits="userSpaceOnUse" x="2230.36" y="166.087" width="178" height="47" fill="black">
<rect fill="white" x="2230.36" y="166.087" width="178" height="47"/>
<path fill-rule="evenodd" clip-rule="evenodd" d="M2241.17 191.349C2240.1 191.018 2240.1 188.152 2241.17 187.82C2252.86 184.197 2282.4 176.24 2316.76 176.087C2317.31 176.084 2317.76 176.532 2317.76 177.085V189.585L2317.76 177.085C2317.76 176.532 2318.21 176.084 2318.77 176.087C2356.28 176.254 2388.06 185.726 2397.12 188.701C2398.01 188.992 2398.01 190.178 2397.12 190.468C2387.98 193.47 2355.72 203.085 2317.76 203.085C2282.98 203.085 2252.97 195.008 2241.17 191.349Z"/>
</mask>
<path fill-rule="evenodd" clip-rule="evenodd" d="M2241.17 191.349C2240.1 191.018 2240.1 188.152 2241.17 187.82C2252.86 184.197 2282.4 176.24 2316.76 176.087C2317.31 176.084 2317.76 176.532 2317.76 177.085V189.585L2317.76 177.085C2317.76 176.532 2318.21 176.084 2318.77 176.087C2356.28 176.254 2388.06 185.726 2397.12 188.701C2398.01 188.992 2398.01 190.178 2397.12 190.468C2387.98 193.47 2355.72 203.085 2317.76 203.085C2282.98 203.085 2252.97 195.008 2241.17 191.349Z" fill="#00B8F0"/>
<path d="M2397.12 188.701L2400.24 179.199L2397.12 188.701ZM2397.12 190.468L2394 180.967L2397.12 190.468ZM2317.76 177.085L2307.76 177.085L2317.76 177.085ZM2316.71 166.087C2280.97 166.246 2250.38 174.497 2238.21 178.269L2244.13 197.372C2255.34 193.897 2283.82 186.234 2316.8 186.087L2316.71 166.087ZM2327.76 189.585V177.085H2307.76V189.585H2327.76ZM2307.76 177.085L2307.76 189.585L2327.76 189.585L2327.76 177.085L2307.76 177.085ZM2400.24 179.199C2390.71 176.074 2357.82 166.261 2318.81 166.087L2318.72 186.087C2354.75 186.247 2385.4 195.378 2394 198.202L2400.24 179.199ZM2317.76 213.085C2357.23 213.085 2390.63 203.122 2400.24 199.97L2394 180.967C2385.32 183.817 2354.2 193.085 2317.76 193.085V213.085ZM2238.21 200.9C2250.49 204.708 2281.57 213.085 2317.76 213.085V193.085C2284.38 193.085 2255.45 185.307 2244.13 181.797L2238.21 200.9ZM2394 198.202C2385.71 195.482 2385.71 183.687 2394 180.967L2400.24 199.97C2410.3 196.668 2410.3 182.501 2400.24 179.199L2394 198.202ZM2327.76 177.085C2327.76 182.101 2323.68 186.109 2318.72 186.087L2318.81 166.087C2312.75 166.06 2307.76 170.964 2307.76 177.085L2327.76 177.085ZM2238.21 178.269C2233.88 179.608 2232 183.016 2231.33 184.618C2230.58 186.434 2230.36 188.202 2230.36 189.585C2230.36 190.967 2230.58 192.735 2231.33 194.551C2232 196.153 2233.88 199.561 2238.21 200.9L2244.13 181.797C2247.91 182.971 2249.4 185.896 2249.8 186.858C2250.29 188.033 2250.36 189.001 2250.36 189.585C2250.36 190.168 2250.29 191.136 2249.8 192.311C2249.4 193.273 2247.91 196.198 2244.13 197.372L2238.21 178.269ZM2316.8 186.087C2311.84 186.109 2307.76 182.101 2307.76 177.085H2327.76C2327.76 170.964 2322.78 166.06 2316.71 166.087L2316.8 186.087Z" fill="#45413C" mask="url(#path-14-outside-3)"/>
<mask id="path-16-outside-4" maskUnits="userSpaceOnUse" x="2154.99" y="116.341" width="133.252" height="118.131" fill="black">
<rect fill="white" x="2154.99" y="116.341" width="133.252" height="118.131"/>
<path fill-rule="evenodd" clip-rule="evenodd" d="M2208.52 154.106C2187.55 167.521 2179.96 193.982 2189.58 216.111C2191.34 220.164 2196.35 221.236 2200.07 218.855L2270.8 173.608C2274.52 171.227 2275.65 166.221 2272.71 162.922C2256.67 144.904 2229.48 140.692 2208.52 154.106Z"/>
</mask>
<path fill-rule="evenodd" clip-rule="evenodd" d="M2208.52 154.106C2187.55 167.521 2179.96 193.982 2189.58 216.111C2191.34 220.164 2196.35 221.236 2200.07 218.855L2270.8 173.608C2274.52 171.227 2275.65 166.221 2272.71 162.922C2256.67 144.904 2229.48 140.692 2208.52 154.106Z" fill="#D6B027"/>
<path d="M2270.8 173.608L2266.49 166.867L2270.8 173.608ZM2196.91 212.92C2188.84 194.337 2195.22 172.11 2212.82 160.848L2204.21 147.365C2179.88 162.932 2171.09 193.627 2182.24 219.303L2196.91 212.92ZM2266.49 166.867L2195.77 212.114L2204.38 225.596L2275.1 180.349L2266.49 166.867ZM2212.82 160.848C2230.43 149.585 2253.27 153.115 2266.74 168.245L2278.68 157.599C2260.07 136.694 2228.54 131.799 2204.21 147.365L2212.82 160.848ZM2275.1 180.349C2282.2 175.811 2285.48 165.231 2278.68 157.599L2266.74 168.245C2266.62 168.109 2266.49 167.896 2266.43 167.639C2266.37 167.397 2266.38 167.203 2266.4 167.084C2266.44 166.874 2266.52 166.844 2266.49 166.867L2275.1 180.349ZM2182.24 219.303C2186.31 228.677 2197.29 230.134 2204.38 225.596L2195.77 212.114C2195.73 212.136 2195.79 212.074 2196 212.125C2196.12 212.154 2196.3 212.226 2196.49 212.383C2196.7 212.551 2196.84 212.753 2196.91 212.92L2182.24 219.303Z" fill="#45413C" mask="url(#path-16-outside-4)"/>
<path fill-rule="evenodd" clip-rule="evenodd" d="M2269.96 174.145C2257.77 155.067 2232.43 149.491 2213.36 161.689C2194.3 173.887 2188.72 199.241 2200.91 218.318L2269.96 174.145Z" fill="#FFEDAF"/>
<path fill-rule="evenodd" clip-rule="evenodd" d="M2374.62 200.556L2375.81 161.184C2375.82 160.781 2375.96 160.391 2376.19 160.066L2429.52 86.9956C2430.17 86.1038 2429.98 84.8531 2429.09 84.2017L2411.55 71.386C2410.66 70.7359 2409.41 70.9279 2408.76 71.8155L2350.76 150.627C2350.52 150.954 2350.39 151.346 2350.38 151.752L2348.76 205.075C2358.43 203.853 2367.19 202.214 2374.62 200.556Z" fill="#9F5AE5"/>
<path d="M2374.62 200.556L2375.71 205.436L2379.5 204.59L2379.62 200.707L2374.62 200.556ZM2375.81 161.184L2380.81 161.335L2380.81 161.335L2375.81 161.184ZM2376.19 160.066L2372.16 157.118L2372.16 157.118L2376.19 160.066ZM2429.52 86.9956L2425.48 84.048L2425.48 84.048L2429.52 86.9956ZM2429.09 84.2017L2432.04 80.1646L2432.04 80.1646L2429.09 84.2017ZM2411.55 71.386L2408.6 75.4231L2408.6 75.4231L2411.55 71.386ZM2408.76 71.8155L2412.78 74.7789L2412.78 74.7789L2408.76 71.8155ZM2350.76 150.627L2346.74 147.664L2346.74 147.664L2350.76 150.627ZM2350.38 151.752L2355.37 151.903L2355.37 151.903L2350.38 151.752ZM2348.76 205.075L2343.76 204.923L2343.59 210.768L2349.39 210.035L2348.76 205.075ZM2379.62 200.707L2380.81 161.335L2370.81 161.033L2369.62 200.405L2379.62 200.707ZM2380.81 161.335C2380.79 161.94 2380.59 162.525 2380.23 163.013L2372.16 157.118C2371.32 158.258 2370.86 159.622 2370.81 161.033L2380.81 161.335ZM2380.23 163.013L2433.56 89.9432L2425.48 84.048L2372.16 157.118L2380.23 163.013ZM2433.56 89.9432C2435.84 86.8215 2435.16 82.4444 2432.04 80.1646L2426.14 88.2388C2424.8 87.2618 2424.51 85.386 2425.48 84.048L2433.56 89.9432ZM2432.04 80.1646L2414.5 67.3489L2408.6 75.4231L2426.14 88.2388L2432.04 80.1646ZM2414.5 67.3489C2411.38 65.0736 2407.02 65.7455 2404.73 68.8521L2412.78 74.7789C2411.8 76.1103 2409.93 76.3982 2408.6 75.4231L2414.5 67.3489ZM2404.73 68.8521L2346.74 147.664L2354.79 153.591L2412.78 74.7789L2404.73 68.8521ZM2346.74 147.664C2345.89 148.808 2345.42 150.181 2345.38 151.601L2355.37 151.903C2355.35 152.512 2355.15 153.1 2354.79 153.591L2346.74 147.664ZM2345.38 151.601L2343.76 204.923L2353.76 205.226L2355.37 151.903L2345.38 151.601ZM2349.39 210.035C2359.24 208.791 2368.15 207.122 2375.71 205.436L2373.53 195.676C2366.23 197.305 2357.63 198.915 2348.13 200.114L2349.39 210.035Z" fill="#45413C"/>
<path d="M3680.04 495.098V211H3767.44C3792.41 211 3814.71 216.659 3834.35 227.976C3854.12 239.163 3869.53 255.163 3880.58 275.976C3891.64 296.659 3897.17 320.203 3897.17 346.61V359.683C3897.17 386.089 3891.7 409.569 3880.78 430.122C3869.99 450.675 3854.7 466.61 3834.94 477.927C3815.17 489.244 3792.86 494.967 3768.02 495.098H3680.04ZM3738.57 258.415V448.073H3766.85C3789.74 448.073 3807.23 440.593 3819.33 425.634C3831.42 410.675 3837.6 389.276 3837.86 361.439V346.415C3837.86 317.537 3831.88 295.683 3819.91 280.854C3807.95 265.894 3790.46 258.415 3767.44 258.415H3738.57Z" fill="#5D5FEF"/>
<path d="M3927.4 387.585C3927.4 366.642 3931.44 347.976 3939.5 331.585C3947.56 315.195 3959.14 302.512 3974.22 293.537C3989.44 284.561 4007.06 280.073 4027.09 280.073C4055.57 280.073 4078.79 288.789 4096.73 306.22C4114.81 323.65 4124.89 347.325 4126.97 377.244L4127.36 391.683C4127.36 424.073 4118.32 450.089 4100.24 469.732C4082.17 489.244 4057.91 499 4027.48 499C3997.05 499 3972.73 489.244 3954.52 469.732C3936.44 450.22 3927.4 423.683 3927.4 390.122V387.585ZM3983.78 391.683C3983.78 411.715 3987.55 427.065 3995.1 437.732C4002.64 448.268 4013.43 453.537 4027.48 453.537C4041.14 453.537 4051.8 448.333 4059.47 437.927C4067.15 427.39 4070.98 410.61 4070.98 387.585C4070.98 367.943 4067.15 352.724 4059.47 341.927C4051.8 331.13 4041.01 325.732 4027.09 325.732C4013.3 325.732 4002.64 331.13 3995.1 341.927C3987.55 352.593 3983.78 369.179 3983.78 391.683Z" fill="#5D5FEF"/>
<path d="M4249.87 453.537C4260.27 453.537 4268.73 450.675 4275.23 444.951C4281.73 439.228 4285.11 431.618 4285.37 422.122H4338.24C4338.11 436.431 4334.21 449.569 4326.54 461.537C4318.86 473.374 4308.33 482.61 4294.93 489.244C4281.67 495.748 4266.97 499 4250.85 499C4220.67 499 4196.87 489.439 4179.45 470.317C4162.02 451.065 4153.31 424.528 4153.31 390.707V387C4153.31 354.48 4161.95 328.528 4179.25 309.146C4196.55 289.764 4220.28 280.073 4250.46 280.073C4276.86 280.073 4297.99 287.618 4313.86 302.707C4329.85 317.667 4337.98 337.634 4338.24 362.61H4285.37C4285.11 351.683 4281.73 342.837 4275.23 336.073C4268.73 329.179 4260.14 325.732 4249.48 325.732C4236.34 325.732 4226.4 330.545 4219.63 340.171C4213 349.667 4209.68 365.146 4209.68 386.61V392.463C4209.68 414.187 4213 429.797 4219.63 439.293C4226.27 448.789 4236.34 453.537 4249.87 453.537Z" fill="#5D5FEF"/>
<path d="M4484.75 436.756C4484.75 429.862 4481.3 424.463 4474.41 420.561C4467.64 416.528 4456.72 412.951 4441.63 409.829C4391.43 399.293 4366.33 377.959 4366.33 345.829C4366.33 327.098 4374.07 311.488 4389.55 299C4405.15 286.382 4425.51 280.073 4450.61 280.073C4477.4 280.073 4498.79 286.382 4514.79 299C4530.92 311.618 4538.98 328.008 4538.98 348.171H4482.6C4482.6 340.106 4480 333.472 4474.8 328.268C4469.6 322.935 4461.47 320.268 4450.41 320.268C4440.92 320.268 4433.57 322.415 4428.37 326.707C4423.17 331 4420.57 336.463 4420.57 343.098C4420.57 349.341 4423.49 354.415 4429.34 358.317C4435.33 362.089 4445.34 365.407 4459.39 368.268C4473.43 371 4485.27 374.122 4494.89 377.634C4524.67 388.561 4539.56 407.488 4539.56 434.415C4539.56 453.667 4531.31 469.276 4514.79 481.244C4498.27 493.081 4476.94 499 4450.8 499C4433.12 499 4417.38 495.878 4403.59 489.634C4389.94 483.26 4379.21 474.61 4371.41 463.683C4363.6 452.626 4359.7 440.724 4359.7 427.976H4413.15C4413.67 437.992 4417.38 445.667 4424.27 451C4431.16 456.333 4440.4 459 4451.97 459C4462.77 459 4470.9 456.984 4476.36 452.951C4481.95 448.789 4484.75 443.39 4484.75 436.756Z" fill="#5D5FEF"/>
<path d="M131.445 395.977H21.4844V350.469H131.445V395.977ZM286.523 395.977H176.562V350.469H286.523V395.977ZM441.602 395.977H331.641V350.469H441.602V395.977ZM596.68 395.977H486.719V350.469H596.68V395.977ZM751.758 395.977H641.797V350.469H751.758V395.977ZM906.836 395.977H796.875V350.469H906.836V395.977ZM1061.91 395.977H951.953V350.469H1061.91V395.977ZM1216.99 395.977H1107.03V350.469H1216.99V395.977ZM1372.07 395.977H1262.11V350.469H1372.07V395.977ZM1527.15 395.977H1417.19V350.469H1527.15V395.977ZM1682.23 395.977H1572.27V350.469H1682.23V395.977ZM1837.3 395.977H1727.34V350.469H1837.3V395.977ZM1992.38 395.977H1882.42V350.469H1992.38V395.977Z" fill="#B8B8B8"/>
<path d="M4897.43 395.977H4787.47V350.469H4897.43V395.977ZM5052.51 395.977H4942.55V350.469H5052.51V395.977ZM5207.59 395.977H5097.62V350.469H5207.59V395.977ZM5362.66 395.977H5252.7V350.469H5362.66V395.977ZM5517.74 395.977H5407.78V350.469H5517.74V395.977ZM5672.82 395.977H5562.86V350.469H5672.82V395.977ZM5827.9 395.977H5717.94V350.469H5827.9V395.977ZM5982.98 395.977H5873.02V350.469H5982.98V395.977ZM6138.05 395.977H6028.09V350.469H6138.05V395.977ZM6293.13 395.977H6183.17V350.469H6293.13V395.977ZM6448.21 395.977H6338.25V350.469H6448.21V395.977ZM6603.29 395.977H6493.33V350.469H6603.29V395.977ZM6758.37 395.977H6648.41V350.469H6758.37V395.977Z" fill="#B8B8B8"/>
</svg>
